<?xml version="1.0" encoding="utf-8"?>
<!-- Generator: Adobe Illustrator 16.0.4, SVG Export Plug-In . SVG Version: 6.00 Build 0)  -->
<!DOCTYPE svg PUBLIC "-//W3C//DTD SVG 1.1//EN" "http://www.w3.org/Graphics/SVG/1.1/DTD/svg11.dtd">
<svg version="1.1" id="Layer_1" xmlns="http://www.w3.org/2000/svg" xmlns:xlink="http://www.w3.org/1999/xlink" x="0px" y="0px"
	 width="273px" height="130px" viewBox="1.5 1 273 130" enable-background="new 1.5 1 273 130" xml:space="preserve">
<g>
	<g>
		<text transform="matrix(1 0 0 1 2.0015 31.5562)" fill="#FFFFFF" font-family="'ArialMT'" font-size="34.2669">adapted from</text>
		<g>
			<path fill="#FFFFFF" d="M46.101,71.024c0,4.498-3.525,8.759-9.58,8.759H24.045V62.266h12.476
				C42.575,62.266,46.101,66.521,46.101,71.024z M68.157,71.024c0-14.241-10.711-27.866-30.621-27.866H2v86.641h22.046V98.893
				h13.493C57.446,98.893,68.157,85.26,68.157,71.024z"/>
			<polygon fill="#FFFFFF" points="205.295,129.805 144.304,129.805 144.304,43.158 204.793,43.158 270.95,43.158 270.95,62.145 
				248.903,62.145 248.903,129.805 226.847,129.805 226.847,62.145 205.295,62.145 166.353,62.145 166.353,76.625 199.622,76.625 
				199.622,95.611 166.353,95.611 166.353,110.823 205.295,110.823 			"/>
			<path fill="#FFFFFF" d="M122.69,66.881c-12.096-5.899-25.902-0.322-25.902-0.322V43.161H72.806v86.644h23.473v-33.07h0.038
				c-0.02-0.243-0.038-0.49-0.038-0.741c0-5.421,4.396-9.824,9.819-9.824c5.416,0,9.816,4.402,9.816,9.824
				c0,0.248-0.017,0.498-0.038,0.741h0.038v33.07h21.87c0,0,0,2.612,0-31.72C137.781,85.695,136.986,73.852,122.69,66.881z"/>
		</g>
	</g>
	<g>
		<path fill="#FFFFFF" d="M258.461,129.85v-8.848h-3.304v-1.182h7.952v1.182h-3.32v8.848H258.461z"/>
		<path fill="#FFFFFF" d="M264.429,129.85v-10.03h1.999l2.373,7.1c0.219,0.661,0.379,1.156,0.478,1.485
			c0.113-0.365,0.294-0.9,0.531-1.607l2.405-6.978H274v10.03h-1.281v-8.394l-2.914,8.394h-1.194l-2.902-8.539v8.539H264.429z"/>
	</g>
</g>
</svg>
