<?xml version="1.0" encoding="utf-8"?>
<!-- Generator: Adobe Illustrator 16.0.4, SVG Export Plug-In . SVG Version: 6.00 Build 0)  -->
<!DOCTYPE svg PUBLIC "-//W3C//DTD SVG 1.1//EN" "http://www.w3.org/Graphics/SVG/1.1/DTD/svg11.dtd">
<svg version="1.1" id="Layer_1" xmlns="http://www.w3.org/2000/svg" xmlns:xlink="http://www.w3.org/1999/xlink" x="0px" y="0px"
	 width="97px" height="46px" viewBox="0 0 97 46" enable-background="new 0 0 97 46" xml:space="preserve">
<g>
	<g>
		<text transform="matrix(1 0 0 1 0.5005 10.8438)" fill="#FFFFFF" font-family="'ArialMT'" font-size="12.0942">adapted from</text>
		<g>
			<path fill-rule="evenodd" clip-rule="evenodd" fill="#FFFFFF" d="M16.065,24.774c0,1.588-1.244,3.091-3.381,3.091H8.281v-6.183
				h4.403C14.821,21.682,16.065,23.184,16.065,24.774z M23.849,24.774c0-5.027-3.78-9.836-10.807-9.836H0.5v30.58h7.781V34.61h4.762
				C20.069,34.61,23.849,29.798,23.849,24.774z"/>
			<polygon fill="#FFFFFF" points="72.251,45.519 50.724,45.519 50.724,14.938 72.074,14.938 95.424,14.938 95.424,21.639 
				87.642,21.639 87.642,45.519 79.857,45.519 79.857,21.639 72.251,21.639 58.507,21.639 58.507,26.75 70.249,26.75 70.249,33.451 
				58.507,33.451 58.507,38.82 72.251,38.82 			"/>
			<path fill="#FFFFFF" d="M43.096,23.311c-4.269-2.082-9.142-0.114-9.142-0.114v-8.258H25.49v30.58h8.285V33.848h0.013
				c-0.007-0.086-0.013-0.173-0.013-0.262c0-1.913,1.551-3.467,3.465-3.467c1.912,0,3.465,1.554,3.465,3.467
				c0,0.088-0.006,0.176-0.013,0.262h0.013v11.671h7.719c0,0,0,0.923,0-11.195C48.423,29.951,48.142,25.771,43.096,23.311z"/>
		</g>
	</g>
	<g>
		<path fill="#FFFFFF" d="M91.016,45.535v-3.123H89.85v-0.417h2.806v0.417h-1.171v3.123H91.016z"/>
		<path fill="#FFFFFF" d="M93.122,45.535v-3.54h0.705l0.838,2.506c0.077,0.234,0.134,0.408,0.169,0.524
			c0.04-0.129,0.104-0.318,0.188-0.567l0.848-2.463h0.63v3.54h-0.452v-2.963l-1.029,2.963h-0.422l-1.024-3.014v3.014H93.122z"/>
	</g>
</g>
</svg>
