<?xml version="1.0" encoding="utf-8"?>
<!-- Generator: Adobe Illustrator 16.0.4, SVG Export Plug-In . SVG Version: 6.00 Build 0)  -->
<!DOCTYPE svg PUBLIC "-//W3C//DTD SVG 1.1//EN" "http://www.w3.org/Graphics/SVG/1.1/DTD/svg11.dtd">
<svg version="1.1" id="Layer_1" xmlns="http://www.w3.org/2000/svg" xmlns:xlink="http://www.w3.org/1999/xlink" x="0px" y="0px"
	 width="276px" height="132px" viewBox="-89.5 -43 276 132" enable-background="new -89.5 -43 276 132" xml:space="preserve">
<g>
	<g>
		<text transform="matrix(1 0 0 1 -88.999 -11.8252)" fill="#FFFFFF" font-family="'ArialMT'" font-size="34.6448">adapted from</text>
		<g>
			<path fill="#FFFFFF" d="M-44.413,28.079c0,4.548-3.564,8.856-9.685,8.856h-12.614V19.224h12.614
				C-47.977,19.224-44.413,23.526-44.413,28.079z M-22.114,28.079c0-14.398-10.829-28.174-30.958-28.174H-89v87.597h22.289V56.255
				h13.642C-32.943,56.255-22.114,42.472-22.114,28.079z"/>
			<polygon fill="#FFFFFF" points="116.537,87.508 54.873,87.508 54.873,-0.095 116.03,-0.095 182.917,-0.095 182.917,19.101 
				160.627,19.101 160.627,87.508 138.326,87.508 138.326,19.101 116.537,19.101 77.165,19.101 77.165,33.741 110.802,33.741 
				110.802,52.937 77.165,52.937 77.165,68.317 116.537,68.317 			"/>
			<path fill="#FFFFFF" d="M33.021,23.89c-12.229-5.964-26.188-0.326-26.188-0.326V-0.092h-24.246v87.6H6.319V54.072h0.038
				c-0.02-0.246-0.038-0.495-0.038-0.749c0-5.48,4.444-9.932,9.927-9.932c5.476,0,9.925,4.451,9.925,9.932
				c0,0.251-0.017,0.503-0.038,0.749h0.038v33.436h22.111c0,0,0,2.641,0-32.07C48.279,42.911,47.475,30.938,33.021,23.89z"/>
		</g>
	</g>
	<g>
		<path fill="#FFFFFF" d="M170.289,87.553v-8.946h-3.34v-1.194h8.04v1.194h-3.356v8.946H170.289z"/>
		<path fill="#FFFFFF" d="M176.323,87.553V77.412h2.021l2.399,7.178c0.222,0.669,0.384,1.169,0.484,1.502
			c0.114-0.369,0.297-0.911,0.537-1.625l2.431-7.055H186v10.141h-1.295v-8.487l-2.946,8.487h-1.208l-2.935-8.633v8.633H176.323z"/>
	</g>
</g>
</svg>
