<?xml version="1.0" encoding="utf-8"?>
<!-- Generator: Adobe Illustrator 16.0.0, SVG Export Plug-In . SVG Version: 6.00 Build 0)  -->
<!DOCTYPE svg PUBLIC "-//W3C//DTD SVG 1.1//EN" "http://www.w3.org/Graphics/SVG/1.1/DTD/svg11.dtd">
<svg version="1.1" id="Layer_1" xmlns="http://www.w3.org/2000/svg" xmlns:xlink="http://www.w3.org/1999/xlink" x="0px" y="0px"
	 width="273.164px" height="76.036px" viewBox="115.92 194.259 273.164 76.036"
	 enable-background="new 115.92 194.259 273.164 76.036" xml:space="preserve">
<g transform="translate(0,12)">
	<g transform="matrix(1 0 0 1 0 100)">
		<polygon fill="#72C9F1" points="310.961,157.976 294.6,157.976 294.6,136.533 296.127,135.617 307.654,128.701 296.127,121.785 
			294.6,120.869 294.6,101.601 310.961,101.601 		"/>
		<polygon fill="none" stroke="#72C9F1" stroke-width="0.6367" stroke-miterlimit="3.8637" points="310.961,157.976 294.6,157.976 
			294.6,136.533 296.127,135.617 307.654,128.701 296.127,121.785 294.6,120.869 294.6,101.601 310.961,101.601 		"/>
		<path fill="#72C9F1" d="M356.867,129.77c0-2.06-0.294-3.935-0.877-5.625c-0.586-1.716-1.475-3.194-2.67-4.438
			c-1.17-1.268-2.604-2.244-4.307-2.932c-1.703-0.712-3.674-1.068-5.908-1.068c-4.271,0-7.627,1.295-10.065,3.881
			c-2.44,2.588-3.659,5.982-3.659,10.183c0,4.198,1.219,7.604,3.659,10.222c2.464,2.588,5.819,3.883,10.065,3.883
			c2.92,0,5.412-0.597,7.471-1.783c2.06-1.215,3.622-2.879,4.691-4.992C356.333,134.958,356.867,132.515,356.867,129.77z
			 M373.107,129.77c0,5.123-1.145,9.838-3.433,14.144c-2.262,4.305-5.643,7.725-10.141,10.26s-9.978,3.804-16.431,3.804
			c-6.533,0-12.061-1.319-16.584-3.962c-4.523-2.641-7.891-6.113-10.103-10.419c-2.187-4.306-3.278-8.912-3.278-13.825
			c0-4.939,1.092-9.548,3.278-13.827c2.185-4.305,5.54-7.764,10.063-10.38c4.551-2.641,10.09-3.96,16.623-3.961
			c4.879,0,9.225,0.753,13.037,2.259c3.836,1.505,6.987,3.552,9.455,6.14c2.465,2.563,4.331,5.561,5.604,8.994
			C372.471,122.4,373.105,125.994,373.107,129.77z"/>
		<path fill="none" stroke="#72C9F1" stroke-width="0.6367" stroke-miterlimit="3.8637" d="M356.867,129.77
			c0-2.06-0.294-3.935-0.877-5.625c-0.586-1.716-1.475-3.194-2.67-4.438c-1.17-1.268-2.604-2.244-4.307-2.932
			c-1.703-0.712-3.674-1.068-5.908-1.068c-4.271,0-7.627,1.295-10.065,3.881c-2.44,2.588-3.659,5.982-3.659,10.183
			c0,4.198,1.219,7.604,3.659,10.222c2.464,2.588,5.819,3.883,10.065,3.883c2.92,0,5.412-0.597,7.471-1.783
			c2.06-1.215,3.622-2.879,4.691-4.992C356.333,134.958,356.867,132.515,356.867,129.77z M373.107,129.77
			c0,5.123-1.145,9.838-3.433,14.144c-2.262,4.305-5.643,7.725-10.141,10.26s-9.978,3.804-16.431,3.804
			c-6.533,0-12.061-1.319-16.584-3.962c-4.523-2.641-7.891-6.113-10.103-10.419c-2.187-4.306-3.278-8.912-3.278-13.825
			c0-4.939,1.092-9.548,3.278-13.827c2.185-4.305,5.54-7.764,10.063-10.38c4.551-2.641,10.09-3.96,16.623-3.961
			c4.879,0,9.225,0.753,13.037,2.259c3.836,1.505,6.987,3.552,9.455,6.14c2.465,2.563,4.331,5.561,5.604,8.994
			C372.471,122.4,373.105,125.994,373.107,129.77z"/>
		<polygon fill="#72C9F1" points="376.812,121.94 378.299,122.832 388.08,128.701 378.299,134.568 376.812,135.46 		"/>
		<polygon fill="none" stroke="#72C9F1" stroke-width="1.0595" stroke-miterlimit="3.8637" points="376.787,121.94 378.273,122.832 
			388.055,128.701 378.273,134.568 376.787,135.46 		"/>
		<path fill="#989898" d="M144.613,119.734c0,2.93-2.295,5.701-6.231,5.701h-8.116v-11.402h8.117
			C142.318,114.033,144.613,116.804,144.613,119.734z M158.962,119.734c0-9.264-6.969-18.132-19.922-18.132h-23.12v56.374h14.346
			v-20.109h8.773C151.993,137.865,158.962,128.998,158.962,119.734z"/>
		<polygon fill="#989898" points="248.18,157.976 208.5,157.976 208.5,101.601 247.854,101.601 290.896,101.601 290.896,113.955 
			276.551,113.955 276.551,157.976 262.203,157.976 262.203,113.955 248.18,113.955 222.846,113.955 222.846,123.375 
			244.491,123.375 244.491,135.727 222.846,135.727 222.846,145.625 248.18,145.625 		"/>
		<circle fill="#72C9F1" cx="302.779" cy="90.441" r="8.182"/>
		<path fill="#989898" d="M194.439,117.033c-7.867-3.837-16.853-0.209-16.853-0.209v-15.223h-15.601v56.374h15.271v-21.519h0.024
			c-0.012-0.158-0.024-0.316-0.024-0.479c0-3.528,2.861-6.39,6.388-6.39c3.525,0,6.387,2.861,6.387,6.39
			c0,0.163-0.012,0.321-0.024,0.479h0.024v21.519h14.23c0,0,0,1.7,0-20.642C204.262,129.275,203.743,121.57,194.439,117.033z"/>
		<text transform="matrix(1 0 0 1 376.7871 156.1226)" fill="#72C9F1" font-family="'ArialMT'" font-size="5.7055">TM</text>
	</g>
</g>
</svg>
