<?xml version="1.0" encoding="UTF-8"?>
<svg id="Layer_1" xmlns="http://www.w3.org/2000/svg" width="274" height="76.256" viewBox="0 0 274 76.256">
    <defs>
        <style>.cls-1{fill:#fff;}.cls-2{fill:#989898;}</style>
    </defs>
    <polygon class="cls-2"
             points="196.36 76.227 179.887 76.227 179.887 54.64 181.426 53.717 193.03 46.754 181.426 39.792 179.887 38.87 179.887 19.471 196.36 19.471 196.36 76.227"/>
    <polygon class="cls-2"
             points="196.36 76.227 179.887 76.227 179.887 54.64 181.426 53.717 193.03 46.754 181.426 39.792 179.887 38.87 179.887 19.471 196.36 19.471 196.36 76.227"/>
    <path class="cls-2"
          d="M242.576,47.83c0-2.074-.296-3.962-.883-5.663-.589-1.728-1.484-3.217-2.687-4.468-1.178-1.276-2.622-2.258-4.337-2.951-1.714-.717-3.699-1.076-5.949-1.076-4.299,0-7.676,1.304-10.133,3.908-2.456,2.606-3.684,6.022-3.684,10.251s1.228,7.657,3.684,10.291c2.481,2.607,5.859,3.909,10.133,3.909,2.942,0,5.449-.6,7.522-1.795,2.074-1.223,3.647-2.9,4.723-5.026,1.073-2.157,1.611-4.616,1.611-7.38ZM258.927,47.83c0,5.158-1.152,9.905-3.456,14.239-2.277,4.335-5.681,7.778-10.21,10.33s-10.044,3.829-16.541,3.829c-6.577,0-12.143-1.329-16.696-3.989-4.554-2.66-7.944-6.156-10.171-10.49-2.201-4.334-3.3-8.972-3.3-13.918,0-4.973,1.1-9.613,3.3-13.92,2.2-4.334,5.579-7.818,10.131-10.45,4.582-2.659,10.159-3.988,16.736-3.989,4.913,0,9.288.758,13.126,2.275,3.862,1.516,7.035,3.575,9.518,6.181,2.482,2.579,4.361,5.598,5.642,9.054,1.28,3.428,1.92,7.045,1.921,10.847Z"/>
    <path class="cls-2"
          d="M242.576,47.83c0-2.074-.296-3.962-.883-5.663-.589-1.728-1.484-3.217-2.687-4.468-1.178-1.276-2.622-2.258-4.337-2.951-1.714-.717-3.699-1.076-5.949-1.076-4.299,0-7.676,1.304-10.133,3.908-2.456,2.606-3.684,6.022-3.684,10.251s1.228,7.657,3.684,10.291c2.481,2.607,5.859,3.909,10.133,3.909,2.942,0,5.449-.6,7.522-1.795,2.074-1.223,3.647-2.9,4.723-5.026,1.073-2.157,1.611-4.616,1.611-7.38ZM258.927,47.83c0,5.158-1.152,9.905-3.456,14.239-2.277,4.335-5.681,7.778-10.21,10.33s-10.044,3.829-16.541,3.829c-6.577,0-12.143-1.329-16.696-3.989-4.554-2.66-7.944-6.156-10.171-10.49-2.201-4.334-3.3-8.972-3.3-13.918,0-4.973,1.1-9.613,3.3-13.92,2.2-4.334,5.579-7.818,10.131-10.45,4.582-2.659,10.159-3.988,16.736-3.989,4.913,0,9.288.758,13.126,2.275,3.862,1.516,7.035,3.575,9.518,6.181,2.482,2.579,4.361,5.598,5.642,9.054,1.28,3.428,1.92,7.045,1.921,10.847Z"/>
    <polygon class="cls-2"
             points="262.655 39.948 264.153 40.845 274 46.754 264.153 52.661 262.655 53.56 262.655 39.948"/>
    <polygon class="cls-2"
             points="262.63 39.948 264.127 40.845 273.975 46.754 264.127 52.661 262.63 53.56 262.63 39.948"/>
    <path class="cls-1"
          d="M28.887,37.727c0,2.949-2.311,5.74-6.273,5.74h-8.171v-11.48h8.171c3.962,0,6.273,2.789,6.273,5.74ZM43.333,37.727c0-9.326-7.016-18.255-20.056-18.255H0v56.756h14.443v-20.246h8.831c13.043,0,20.059-8.927,20.059-18.254Z"/>
    <polygon class="cls-1"
             points="133.154 76.227 93.206 76.227 93.206 19.471 132.826 19.471 176.159 19.471 176.159 31.908 161.717 31.908 161.717 76.227 147.271 76.227 147.271 31.908 133.154 31.908 107.65 31.908 107.65 41.392 129.441 41.392 129.441 53.828 107.65 53.828 107.65 63.793 133.154 63.793 133.154 76.227"/>
    <circle class="cls-2" cx="188.123" cy="8.236" r="8.236"/>
    <path class="cls-1"
          d="M79.051,35.008c-7.921-3.863-16.966-.212-16.966-.212v-15.325h-15.706v56.756h15.374v-21.664h.023c-.012-.16-.023-.318-.023-.483,0-3.552,2.88-6.432,6.43-6.432s6.43,2.879,6.43,6.432c0,.165-.012.323-.023.483h.023v21.664h14.327s0,1.711,0-20.78c0-8.114-.522-15.87-9.888-20.438Z"/>
    <path class="cls-2" d="M264.12,74.361v-3.627h-1.354v-.484h3.259v.484h-1.36v3.627h-.544Z"/>
    <path class="cls-2"
          d="M266.566,74.361v-4.111h.818l.974,2.911c.09.271.155.474.196.608.047-.149.119-.369.219-.659l.984-2.86h.732v4.111h-.525v-3.441l-1.194,3.441h-.491l-1.188-3.5v3.5h-.524Z"/>
</svg>