<?xml version="1.0" encoding="utf-8"?>
<!-- Generator: Adobe Illustrator 16.0.0, SVG Export Plug-In . SVG Version: 6.00 Build 0)  -->
<!DOCTYPE svg PUBLIC "-//W3C//DTD SVG 1.1//EN" "http://www.w3.org/Graphics/SVG/1.1/DTD/svg11.dtd">
<svg version="1.1" id="Layer_2" xmlns="http://www.w3.org/2000/svg" xmlns:xlink="http://www.w3.org/1999/xlink" x="0px" y="0px"
	 width="504px" height="360px" viewBox="0 0 504 360" enable-background="new 0 0 504 360" xml:space="preserve">
<g>
	<text transform="matrix(1 0 0 1 188.709 297.876)" fill="#FFFFFF" font-family="'Tahoma'" font-size="29">Loading...</text>
</g>
<polygon fill="#72C9F1" points="355.668,233.939 331.266,233.939 331.266,201.959 333.546,200.591 350.736,190.278 333.546,179.964 
	331.266,178.597 331.266,149.86 355.668,149.86 "/>
<polygon fill="none" stroke="#72C9F1" stroke-width="1.1791" stroke-miterlimit="3.8637" points="355.668,233.939 331.266,233.939 
	331.266,201.959 333.546,200.591 350.736,190.278 333.546,179.964 331.266,178.597 331.266,149.86 355.668,149.86 "/>
<path fill="#72C9F1" d="M424.135,191.871c0-3.072-0.437-5.868-1.309-8.391c-0.871-2.56-2.198-4.766-3.979-6.617
	c-1.745-1.891-3.886-3.347-6.425-4.373c-2.541-1.062-5.478-1.594-8.812-1.594c-6.368,0-11.373,1.931-15.011,5.79
	c-3.64,3.86-5.458,8.921-5.458,15.185c0,6.263,1.818,11.344,5.458,15.243c3.677,3.861,8.68,5.791,15.011,5.791
	c4.357,0,8.072-0.887,11.144-2.66c3.071-1.811,5.402-4.292,6.995-7.444C423.338,199.61,424.135,195.967,424.135,191.871z
	 M448.357,191.871c0,7.643-1.707,14.673-5.119,21.093c-3.373,6.422-8.415,11.521-15.123,15.303
	c-6.71,3.782-14.879,5.673-24.506,5.673c-9.741,0-17.986-1.969-24.732-5.909c-6.749-3.938-11.77-9.117-15.067-15.538
	c-3.261-6.421-4.89-13.293-4.89-20.621c0-7.367,1.629-14.238,4.89-20.621c3.259-6.421,8.261-11.579,15.01-15.481
	c6.784-3.938,15.048-5.906,24.79-5.908c7.278,0,13.76,1.123,19.446,3.369c5.722,2.244,10.422,5.298,14.1,9.156
	c3.678,3.823,6.462,8.294,8.357,13.413C447.408,180.881,448.354,186.239,448.357,191.871z"/>
<path fill="none" stroke="#72C9F1" stroke-width="1.1791" stroke-miterlimit="3.8637" d="M424.135,191.871
	c0-3.072-0.437-5.868-1.309-8.391c-0.871-2.56-2.198-4.766-3.979-6.617c-1.745-1.891-3.886-3.347-6.425-4.373
	c-2.541-1.062-5.478-1.594-8.812-1.594c-6.368,0-11.373,1.931-15.011,5.79c-3.64,3.86-5.458,8.921-5.458,15.185
	c0,6.263,1.818,11.344,5.458,15.243c3.677,3.861,8.68,5.791,15.011,5.791c4.357,0,8.072-0.887,11.144-2.66
	c3.071-1.811,5.402-4.292,6.995-7.444C423.338,199.61,424.135,195.967,424.135,191.871z M448.357,191.871
	c0,7.643-1.707,14.673-5.119,21.093c-3.373,6.422-8.415,11.521-15.123,15.303c-6.71,3.782-14.879,5.673-24.506,5.673
	c-9.741,0-17.986-1.969-24.732-5.909c-6.749-3.938-11.77-9.117-15.067-15.538c-3.261-6.421-4.89-13.293-4.89-20.621
	c0-7.367,1.629-14.238,4.89-20.621c3.259-6.421,8.261-11.579,15.01-15.481c6.784-3.938,15.048-5.906,24.79-5.908
	c7.278,0,13.76,1.123,19.446,3.369c5.722,2.244,10.422,5.298,14.1,9.156c3.678,3.823,6.462,8.294,8.357,13.413
	C447.408,180.881,448.354,186.239,448.357,191.871z"/>
<polygon fill="#72C9F1" points="453.882,180.195 456.099,181.524 470.688,190.278 456.099,199.029 453.882,200.36 "/>
<polygon fill="none" stroke="#72C9F1" stroke-width="1.9621" stroke-miterlimit="3.8637" points="453.844,180.195 456.062,181.524 
	470.648,190.278 456.062,199.029 453.844,200.36 "/>
<path fill="#989898" d="M107.571,176.904c0,4.368-3.424,8.502-9.293,8.502H86.172v-17.004h12.106
	C104.147,168.402,107.571,172.534,107.571,176.904z M128.97,176.904c0-13.816-10.394-27.044-29.712-27.044H64.775v84.079h21.396
	v-29.993h13.086C118.576,203.946,128.97,190.72,128.97,176.904z"/>
<polygon fill="#989898" points="262.035,233.939 202.854,233.939 202.854,149.86 261.549,149.86 325.744,149.86 325.744,168.283 
	304.348,168.283 304.348,233.939 282.948,233.939 282.948,168.283 262.035,168.283 224.25,168.283 224.25,182.336 256.532,182.336 
	256.532,200.757 224.25,200.757 224.25,215.519 262.035,215.519 "/>
<circle fill="#72C9F1" cx="343.467" cy="133.217" r="12.201"/>
<path fill="#989898" d="M181.884,172.876c-11.734-5.724-25.134-0.313-25.134-0.313V149.86h-23.269v84.079l22.775,0.001v-32.094
	h0.037c-0.018-0.237-0.037-0.474-0.037-0.716c0-5.264,4.268-9.529,9.527-9.529c5.257,0,9.523,4.266,9.523,9.529
	c0,0.242-0.018,0.479-0.035,0.716h0.035v32.094h21.227c0,0,0,2.535,0-30.786C196.533,191.135,195.759,179.643,181.884,172.876z"/>
</svg>
