<?xml version="1.0" encoding="utf-8"?>
<!-- Generator: Adobe Illustrator 16.0.0, SVG Export Plug-In . SVG Version: 6.00 Build 0)  -->
<!DOCTYPE svg PUBLIC "-//W3C//DTD SVG 1.1//EN" "http://www.w3.org/Graphics/SVG/1.1/DTD/svg11.dtd">
<svg version="1.1" id="Layer_1" xmlns="http://www.w3.org/2000/svg" xmlns:xlink="http://www.w3.org/1999/xlink" x="0px" y="0px"
	 width="504px" height="360px" viewBox="0 0 504 360" enable-background="new 0 0 504 360"
	 xml:space="preserve">
<g transform="matrix(1 0 0 1 0 100)">
	<polygon fill-rule="evenodd" clip-rule="evenodd" fill="#72C9F1" points="361.187,140.212 330.887,140.212 330.887,100.504 
		333.718,98.806 355.062,86 333.718,73.193 330.887,71.496 330.887,35.815 361.187,35.815 	"/>
	<polygon fill="none" stroke="#72C9F1" stroke-width="1.1791" stroke-miterlimit="3.8637" points="361.187,140.212 330.887,140.212 
		330.887,100.504 333.718,98.806 355.062,86 333.718,73.193 330.887,71.496 330.887,35.815 361.187,35.815 	"/>
	<path fill-rule="evenodd" clip-rule="evenodd" fill="#72C9F1" d="M446.198,87.979c0-3.815-0.544-7.287-1.624-10.418
		c-1.083-3.178-2.73-5.917-4.942-8.217c-2.166-2.348-4.824-4.155-7.978-5.429c-3.154-1.32-6.801-1.98-10.941-1.98
		c-7.907,0-14.121,2.398-18.639,7.189c-4.519,4.793-6.777,11.077-6.777,18.855c0,7.775,2.259,14.084,6.777,18.927
		c4.564,4.794,10.777,7.189,18.639,7.189c5.41,0,10.022-1.101,13.836-3.302c3.813-2.249,6.707-5.33,8.686-9.244
		C445.209,97.587,446.198,93.063,446.198,87.979z M476.273,87.979c0,9.488-2.118,18.218-6.355,26.189
		c-4.188,7.974-10.448,14.305-18.778,19.001c-8.33,4.695-18.475,7.043-30.427,7.043c-12.097,0-22.333-2.444-30.709-7.337
		c-8.38-4.89-14.614-11.32-18.71-19.294c-4.048-7.972-6.07-16.504-6.07-25.603c0-9.148,2.022-17.68,6.07-25.604
		c4.047-7.972,10.258-14.377,18.638-19.222c8.424-4.89,18.685-7.334,30.781-7.336c9.036,0,17.084,1.395,24.145,4.183
		c7.104,2.787,12.94,6.578,17.507,11.37c4.565,4.747,8.023,10.296,10.378,16.654C475.095,74.332,476.271,80.985,476.273,87.979z"/>
	<path fill="none" stroke="#72C9F1" stroke-width="1.1791" stroke-miterlimit="3.8637" d="M446.198,87.979
		c0-3.815-0.544-7.287-1.624-10.418c-1.083-3.178-2.73-5.917-4.942-8.217c-2.166-2.348-4.824-4.155-7.978-5.429
		c-3.154-1.32-6.801-1.98-10.941-1.98c-7.907,0-14.121,2.398-18.639,7.189c-4.519,4.793-6.777,11.077-6.777,18.855
		c0,7.775,2.259,14.084,6.777,18.927c4.564,4.794,10.777,7.189,18.639,7.189c5.41,0,10.022-1.101,13.836-3.302
		c3.813-2.249,6.707-5.33,8.686-9.244C445.209,97.587,446.198,93.063,446.198,87.979z M476.273,87.979
		c0,9.488-2.118,18.218-6.355,26.189c-4.188,7.974-10.448,14.305-18.778,19.001c-8.33,4.695-18.475,7.043-30.427,7.043
		c-12.097,0-22.333-2.444-30.709-7.337c-8.38-4.89-14.614-11.32-18.71-19.294c-4.048-7.972-6.07-16.504-6.07-25.603
		c0-9.148,2.022-17.68,6.07-25.604c4.047-7.972,10.258-14.377,18.638-19.222c8.424-4.89,18.685-7.334,30.781-7.336
		c9.036,0,17.084,1.395,24.145,4.183c7.104,2.787,12.94,6.578,17.507,11.37c4.565,4.747,8.023,10.296,10.378,16.654
		C475.095,74.332,476.271,80.985,476.273,87.979z"/>
	<polygon fill-rule="evenodd" clip-rule="evenodd" fill="#72C9F1" points="483.134,73.481 485.887,75.131 504,86 485.887,96.865 
		483.134,98.519 	"/>
	<polygon fill="none" stroke="#72C9F1" stroke-width="1.9621" stroke-miterlimit="3.8637" points="483.087,73.481 485.84,75.131 
		503.952,86 485.84,96.865 483.087,98.519 	"/>
	<path fill-rule="evenodd" clip-rule="evenodd" fill="#989898" d="M53.137,69.394c0,5.424-4.251,10.558-11.54,10.558H26.567V58.837
		h15.031C48.886,58.837,53.137,63.968,53.137,69.394z M79.707,69.394c0-17.155-12.906-33.578-36.893-33.578H0v104.396h26.567
		v-37.241h16.247C66.801,102.971,79.707,86.549,79.707,69.394z"/>
	<polygon fill="#989898" points="244.926,140.212 171.444,140.212 171.444,35.815 244.323,35.815 324.031,35.815 324.031,58.69 
		297.464,58.69 297.464,140.212 270.894,140.212 270.894,58.69 244.926,58.69 198.011,58.69 198.011,76.138 238.095,76.138 
		238.095,99.01 198.011,99.01 198.011,117.34 244.926,117.34 	"/>
	<circle fill="#72C9F1" cx="346.037" cy="15.149" r="15.15"/>
	<path fill="#989898" d="M145.407,64.392c-14.569-7.106-31.208-0.389-31.208-0.389V35.815H85.308v104.396h28.28v-39.847h0.045
		c-0.022-0.294-0.045-0.589-0.045-0.889c0-6.536,5.298-11.833,11.829-11.833c6.527,0,11.825,5.297,11.825,11.833
		c0,0.3-0.022,0.595-0.044,0.889h0.044v39.847h26.354c0,0,0,3.149,0-38.224C163.596,87.062,162.635,72.795,145.407,64.392z"/>
	<text transform="matrix(1 0 0 1 483.0859 136.7812)" fill="#72C9F1" font-family="'ArialMT'" font-size="10.5657">TM</text>
</g>
	<g>
	<text transform="matrix(1 0 0 1 188.709 282)" fill="#FFFFFF" font-family="'Tahoma'" font-size="29">Loading...</text>
</g>
</svg>
