<?xml version="1.0" encoding="utf-8"?>
<!-- Generator: Adobe Illustrator 16.0.4, SVG Export Plug-In . SVG Version: 6.00 Build 0)  -->
<!DOCTYPE svg PUBLIC "-//W3C//DTD SVG 1.1//EN" "http://www.w3.org/Graphics/SVG/1.1/DTD/svg11.dtd">
<svg version="1.1" id="Layer_1" xmlns="http://www.w3.org/2000/svg" xmlns:xlink="http://www.w3.org/1999/xlink" x="0px" y="0px"
	 width="276px" height="132px" viewBox="146.781 68.752 276 132" enable-background="new 146.781 68.752 276 132"
	 xml:space="preserve">
<g>
	<g>
		<rect x="147.281" y="185.533" fill="#FFFFFF" width="3.6" height="13.984"/>
		<polygon fill="#FFFFFF" points="163.725,193.924 158.043,185.533 154.433,185.533 154.433,199.517 158.043,199.517 
			158.043,191.194 163.77,199.517 167.335,199.517 167.335,185.533 163.725,185.533 		"/>
		<polygon fill="#FFFFFF" points="169.833,188.802 173.86,188.802 173.86,199.517 177.465,199.517 177.465,188.802 181.539,188.802 
			181.539,185.533 169.833,185.533 		"/>
		<polygon fill="#FFFFFF" points="183.807,199.517 193.559,199.517 193.559,196.565 187.411,196.565 187.411,194 192.741,194 
			192.741,191.043 187.411,191.043 187.411,188.467 193.559,188.467 193.559,185.533 183.807,185.533 		"/>
		<path fill="#FFFFFF" d="M207.612,190.081c0-2.954-2.303-4.552-5.637-4.552h-5.519v13.988h3.611v-4.675h1.489l2.599,4.675h4.027
			l-3.379-5.218C206.423,193.77,207.612,192.388,207.612,190.081z M202.204,192.137h-2.137v-3.67h2.137
			c0.937,0,1.802,0.712,1.802,1.845C204.006,191.421,203.141,192.137,202.204,192.137z"/>
		<path fill="#FFFFFF" d="M215.571,185.533l-5.562,13.984h3.884l1.088-3.352h4.571l1.094,3.352h3.88l-5.559-13.984H215.571z
			 M215.842,193.5l1.43-4.342l1.401,4.342H215.842z"/>
		<path fill="#FFFFFF" d="M225.81,192.513c0,5.912,3.562,7.155,6.565,7.155c1.489,0,3.022-0.398,4.487-0.988v-3.127
			c-1.532,0.737-2.833,1.012-4.275,1.012c-1.661,0-3.171-0.737-3.171-4.052s1.51-4.048,3.171-4.048c1.443,0,2.744,0.272,4.275,1.004
			v-3.123c-1.464-0.586-2.998-0.984-4.487-0.984C229.373,185.362,225.81,186.597,225.81,192.513z"/>
		<polygon fill="#FFFFFF" points="238.777,188.802 242.803,188.802 242.803,199.517 246.411,199.517 246.411,188.802 
			250.478,188.802 250.478,185.533 238.777,185.533 		"/>
		<rect x="252.768" y="185.533" fill="#FFFFFF" width="3.607" height="13.984"/>
		<polygon fill="#FFFFFF" points="265.584,195.428 262.463,185.533 258.605,185.533 263.973,199.517 267.244,199.517 
			272.572,185.533 268.714,185.533 		"/>
		<polygon fill="#FFFFFF" points="274.737,199.517 284.486,199.517 284.486,196.565 278.342,196.565 278.342,194 283.671,194 
			283.671,191.043 278.342,191.043 278.342,188.467 284.486,188.467 284.486,185.533 274.737,185.533 		"/>
		<path fill="#FFFFFF" d="M294.468,189.242c0-1.551,1.238-2.392,3.463-2.392c1.427,0,2.578,0.441,3.355,0.884v-1.557
			c-0.899-0.442-2.081-0.835-3.504-0.835c-3.564,0-4.824,2.014-4.824,3.899c0,4.683,7.717,2.621,7.717,6.71
			c0,1.847-1.946,2.225-3.569,2.225c-1.901,0-3.202-0.564-4.021-1.111v1.637c0.985,0.529,2.349,0.988,4.131,0.988
			c3.126,0,4.973-1.411,4.973-3.738C302.188,190.604,294.468,192.303,294.468,189.242z"/>
		<rect x="305.297" y="185.529" fill="#FFFFFF" width="1.51" height="13.988"/>
		<polygon fill="#FFFFFF" points="316.871,192.643 312.07,185.533 310.435,185.533 310.435,199.517 311.946,199.517 
			311.946,188.004 316.871,195.136 321.823,188.004 321.823,199.517 323.333,199.517 323.333,185.533 321.701,185.533 		"/>
		<path fill="#FFFFFF" d="M336.892,193.856c0,2.999-1.365,4.448-4.176,4.448c-2.812,0-4.178-1.449-4.178-4.448v-8.323h-1.507v8.235
			c0,3.824,2.017,5.922,5.685,5.922c3.672,0,5.685-2.098,5.685-5.922v-8.235h-1.509V193.856L336.892,193.856z"/>
		<polygon fill="#FFFFFF" points="343.44,185.533 341.927,185.533 341.927,199.517 350.591,199.517 350.591,198.051 343.44,198.051 
					"/>
		<path fill="#FFFFFF" d="M357.916,185.533l-5.58,13.984h1.633l1.68-4.355h6.042l1.679,4.355h1.611l-5.558-13.984H357.916z
			 M356.211,193.711l2.46-6.398l2.452,6.398H356.211z"/>
		<polygon fill="#FFFFFF" points="364.271,186.996 369.221,186.996 369.221,199.517 370.734,199.517 370.734,186.996 
			375.661,186.996 375.661,185.533 364.271,185.533 		"/>
		<rect x="377.949" y="185.529" fill="#FFFFFF" width="1.509" height="13.988"/>
		<path fill="#FFFFFF" d="M388.964,185.342c-4.297,0-6.479,2.409-6.479,7.171c0,4.76,2.182,7.177,6.479,7.177
			c4.321,0,6.506-2.417,6.506-7.175C395.47,187.751,393.285,185.342,388.964,185.342z M388.964,198.262
			c-3.438,0-4.972-1.762-4.972-5.747c0-3.964,1.534-5.747,4.972-5.747c3.465,0,4.995,1.783,4.995,5.747
			C393.958,196.5,392.428,198.262,388.964,198.262z"/>
		<polygon fill="#FFFFFF" points="408.497,197.316 400.151,185.533 398.431,185.533 398.431,199.517 399.94,199.517 399.94,187.734 
			408.307,199.517 410.007,199.517 410.007,185.533 408.497,185.533 		"/>
		<path fill="#FFFFFF" d="M414.561,189.242c0-1.551,1.236-2.392,3.464-2.392c1.425,0,2.577,0.441,3.356,0.884v-1.557
			c-0.902-0.442-2.077-0.835-3.505-0.835c-3.563,0-4.821,2.014-4.821,3.899c0,4.683,7.721,2.621,7.721,6.71
			c0,1.847-1.955,2.225-3.57,2.225c-1.907,0-3.207-0.564-4.027-1.111v1.637c0.986,0.529,2.353,0.988,4.133,0.988
			c3.125,0,4.971-1.411,4.971-3.738C422.281,190.604,414.561,192.303,414.561,189.242z"/>
	</g>
	<g>
		<path fill="#6ACEF5" d="M181.505,94.111h-32.212c-1.111,0-2.012,0.904-2.012,2.009v80.542c0,1.111,0.901,2.012,2.012,2.012h17.778
			c1.115,0,2.015-0.9,2.015-2.012v-21.07c0-1.12,0.898-2.016,2.016-2.016h10.401c20.544,0,32.334-10.905,32.334-29.798
			C213.84,105.016,202.049,94.111,181.505,94.111 M179.478,135.574h-8.375c-1.118,0-2.016-0.905-2.016-2.02v-19.678
			c0-1.115,0.898-2.012,2.016-2.012h8.375c9.632,0,12.683,6.591,12.683,11.915C192.16,129.363,189.109,135.574,179.478,135.574"/>
		<path fill="#6ACEF5" d="M420.27,94.111H296.621c-1.112,0-2.017,0.904-2.017,2.009v80.542c0,1.111,0.904,2.012,2.017,2.012h54.928
			c1.113,0,2.014-0.9,2.014-2.012v-13.846c0-1.113-0.9-2.019-2.014-2.019h-34.133c-0.555,0-1.005-0.449-1.005-1.008v-13.453
			c0-0.555,0.45-1.01,1.005-1.01h29.188c1.111,0,2.012-0.897,2.012-2.009v-13.847c0-1.113-0.9-2.019-2.012-2.019h-29.188
			c-0.555,0-1.005-0.45-1.005-1.007v-13.577c0-0.554,0.45-1.005,1.005-1.005l57.45,0.059c0.558,0,1.014,0.453,1.014,1.007v63.733
			c0,1.111,0.902,2.012,2.008,2.012h17.784c1.109,0,2.014-0.9,2.014-2.012V112.93c0-0.553,0.45-1.007,1.007-1.007h21.577
			c1.104,0,2.012-0.905,2.012-2.009V96.12C422.281,95.016,421.374,94.111,420.27,94.111"/>
		<path fill="#FEE105" d="M268.156,116.937c-0.809,2.505-1.572,5.04-2.261,7.626c-0.144,0.542-0.278,1.097-0.426,1.646
			c-6.481,28.008-2.967,46.312-1.746,52.273c0.292,0.125,0.586,0.192,0.89,0.192h16.437c1.111,0,2.024-0.9,2.024-2.012V141.4
			C283.073,129.715,277.776,120.946,268.156,116.937"/>
		<path fill="#FEE105" d="M244.274,115.285V93.337c0-1.113-0.908-2.021-2.012-2.021h-17.786c-1.111,0-2.015,0.908-2.015,2.021
			v83.326c0,1.111,0.904,2.012,2.015,2.012h11.184c0.515,0,1.002-0.192,1.407-0.494c3.155-25.248,12.587-47.206,21.895-63.466
			c-1.264-0.125-2.557-0.186-3.916-0.186C251.632,114.529,247.317,114.774,244.274,115.285"/>
		<polygon fill="#FEE105" points="254.493,86.179 266.967,90.69 283.016,77.324 270.662,91.951 284.01,96.656 288.822,69.814 		"/>
		<polyline fill="#F2E916" points="271.891,99.34 271.369,93.352 275.975,95.012 		"/>
	</g>
	<g>
		<path fill="#6ACEF5" d="M404.115,178.674v-4.851h-1.812v-0.648h4.36v0.648h-1.82v4.851H404.115z"/>
		<path fill="#6ACEF5" d="M407.387,178.674v-5.499h1.097l1.302,3.894c0.12,0.362,0.208,0.635,0.263,0.815
			c0.062-0.202,0.16-0.494,0.292-0.881l1.317-3.828h0.979v5.499h-0.701v-4.602l-1.599,4.602h-0.656l-1.591-4.682v4.682H407.387z"/>
	</g>
</g>
</svg>
