<?xml version="1.0" encoding="utf-8"?>
<!-- Generator: Adobe Illustrator 16.0.4, SVG Export Plug-In . SVG Version: 6.00 Build 0)  -->
<!DOCTYPE svg PUBLIC "-//W3C//DTD SVG 1.1//EN" "http://www.w3.org/Graphics/SVG/1.1/DTD/svg11.dtd">
<svg version="1.1" id="Layer_2" xmlns="http://www.w3.org/2000/svg" xmlns:xlink="http://www.w3.org/1999/xlink" x="0px" y="0px"
	 width="276px" height="132px" viewBox="114.001 114 276 132" enable-background="new 114.001 114 276 132" xml:space="preserve">
<g>
	<path fill="#6ACEF5" d="M149.438,139.104h-32c-1.104,0-2,0.896-2,2v79.987c0,1.105,0.896,2,2,2h17.66c1.104,0,2-0.895,2-2v-20.93
		c0-1.104,0.895-2,2-2h10.34c20.397,0,32.108-10.83,32.108-29.592C181.545,149.932,169.834,139.104,149.438,139.104z
		 M147.422,180.279h-8.326c-1.104,0-2-0.896-2-2v-19.547c0-1.105,0.896-2,2-2h8.326c9.568,0,12.59,6.547,12.59,11.838
		C160.012,174.111,156.99,180.279,147.422,180.279z"/>
	<path fill="#6ACEF5" d="M386.573,139.104h-122.81c-1.104,0-2,0.896-2,2v79.987c0,1.105,0.896,2,2,2h54.555c1.104,0,2-0.895,2-2
		v-13.754c0-1.104-0.896-2-2-2h-33.896c-0.553,0-1-0.446-1-1v-13.362c0-0.554,0.447-1,1-1h28.98c1.104,0,2-0.896,2-2v-13.751
		c0-1.104-0.896-2-2-2h-28.98c-0.553,0-1-0.448-1-1v-13.489c0-0.552,0.447-1,1-1l57.06,0.063c0.554,0,1,0.449,1,1v63.297
		c0,1.104,0.896,2,2,2h17.659c1.104,0,2-0.896,2-2v-63.297c0-0.551,0.445-1,1-1h21.435c1.104,0,2-0.896,2-2v-13.691
		C388.573,140,387.678,139.104,386.573,139.104z"/>
</g>
<g>
	<rect x="115.415" y="230.96" fill="#FFFFFF" width="3.581" height="13.896"/>
	<polygon fill="#FFFFFF" points="131.749,239.294 126.104,230.96 122.521,230.96 122.521,244.855 126.104,244.855 126.104,236.585 
		131.794,244.855 135.336,244.855 135.336,230.96 131.749,230.96 	"/>
	<polygon fill="#FFFFFF" points="137.818,234.21 141.818,234.21 141.818,244.855 145.4,244.855 145.4,234.21 149.445,234.21 
		149.445,230.96 137.818,230.96 	"/>
	<polygon fill="#FFFFFF" points="151.698,244.855 161.387,244.855 161.387,241.921 155.281,241.921 155.281,239.376 
		160.573,239.376 160.573,236.438 155.281,236.438 155.281,233.878 161.387,233.878 161.387,230.96 151.698,230.96 	"/>
	<path fill="#FFFFFF" d="M175.346,235.479c0-2.935-2.291-4.521-5.6-4.521h-5.482v13.896h3.586v-4.646h1.479l2.583,4.646h4
		l-3.354-5.187C174.163,239.146,175.346,237.771,175.346,235.479z M169.975,237.523h-2.125v-3.646h2.125
		c0.934,0,1.791,0.707,1.791,1.834C171.766,236.812,170.908,237.523,169.975,237.523z"/>
	<path fill="#FFFFFF" d="M183.25,230.96l-5.523,13.896h3.857l1.081-3.332h4.542l1.085,3.332h3.854l-5.522-13.896H183.25z
		 M183.52,238.876l1.42-4.312l1.393,4.312H183.52z"/>
	<path fill="#FFFFFF" d="M193.423,237.9c0,5.873,3.539,7.104,6.519,7.104c1.479,0,3.002-0.396,4.459-0.979v-3.104
		c-1.521,0.729-2.815,1.006-4.25,1.006c-1.646,0-3.147-0.729-3.147-4.021c0-3.295,1.501-4.021,3.147-4.021
		c1.434,0,2.728,0.271,4.25,1.002v-3.104c-1.457-0.582-2.98-0.98-4.459-0.98C196.962,230.794,193.423,232.021,193.423,237.9z"/>
	<polygon fill="#FFFFFF" points="206.302,234.21 210.301,234.21 210.301,244.855 213.887,244.855 213.887,234.21 217.928,234.21 
		217.928,230.96 206.302,230.96 	"/>
	<rect x="220.201" y="230.96" fill="#FFFFFF" width="3.585" height="13.896"/>
	<polygon fill="#FFFFFF" points="232.934,240.794 229.831,230.96 225.997,230.96 231.33,244.855 234.581,244.855 239.874,230.96 
		236.039,230.96 	"/>
	<polygon fill="#FFFFFF" points="242.023,244.855 251.71,244.855 251.71,241.921 245.605,241.921 245.605,239.376 250.896,239.376 
		250.896,236.438 245.605,236.438 245.605,233.878 251.71,233.878 251.71,230.96 242.023,230.96 	"/>
	<path fill="#FFFFFF" d="M261.622,234.646c0-1.541,1.229-2.373,3.44-2.373c1.414,0,2.561,0.438,3.332,0.875v-1.545
		c-0.896-0.438-2.064-0.83-3.48-0.83c-3.542,0-4.79,2-4.79,3.873c0,4.646,7.665,2.604,7.665,6.666c0,1.834-1.938,2.209-3.543,2.209
		c-1.893,0-3.184-0.562-3.998-1.104v1.621c0.979,0.522,2.334,0.979,4.104,0.979c3.104,0,4.938-1.397,4.938-3.713
		C269.291,236.001,261.622,237.689,261.622,234.646z"/>
	<rect x="272.378" y="230.958" fill="#FFFFFF" width="1.5" height="13.896"/>
	<polygon fill="#FFFFFF" points="283.879,238.023 279.107,230.96 277.484,230.96 277.484,244.855 278.984,244.855 278.984,233.419 
		283.879,240.501 288.796,233.419 288.796,244.855 290.296,244.855 290.296,230.96 288.674,230.96 	"/>
	<path fill="#FFFFFF" d="M303.761,239.232c0,2.979-1.353,4.416-4.144,4.416c-2.795,0-4.148-1.438-4.148-4.416v-8.271h-1.5v8.187
		c0,3.793,2.001,5.879,5.648,5.879c3.645,0,5.646-2.086,5.646-5.879v-8.187h-1.506L303.761,239.232L303.761,239.232z"/>
	<polygon fill="#FFFFFF" points="310.268,230.96 308.766,230.96 308.766,244.855 317.373,244.855 317.373,243.398 310.268,243.398 	
		"/>
	<path fill="#FFFFFF" d="M324.646,230.96l-5.544,13.896h1.623l1.671-4.33h6l1.665,4.33h1.604l-5.521-13.896H324.646z
		 M322.957,239.083l2.438-6.354l2.438,6.354H322.957z"/>
	<polygon fill="#FFFFFF" points="330.963,232.417 335.879,232.417 335.879,244.855 337.38,244.855 337.38,232.417 342.273,232.417 
		342.273,230.96 330.963,230.96 	"/>
	<rect x="344.55" y="230.958" fill="#FFFFFF" width="1.5" height="13.896"/>
	<path fill="#FFFFFF" d="M355.489,230.773c-4.271,0-6.438,2.395-6.438,7.127c0,4.727,2.167,7.123,6.438,7.123
		c4.293,0,6.46-2.396,6.46-7.123C361.949,233.167,359.782,230.773,355.489,230.773z M355.489,243.605
		c-3.417,0-4.938-1.748-4.938-5.705c0-3.939,1.521-5.713,4.938-5.713c3.438,0,4.96,1.771,4.96,5.713
		C360.449,241.857,358.93,243.605,355.489,243.605z"/>
	<polygon fill="#FFFFFF" points="374.895,242.666 366.602,230.96 364.893,230.96 364.893,244.855 366.393,244.855 366.393,233.148 
		374.704,244.855 376.395,244.855 376.395,230.96 374.895,230.96 	"/>
	<path fill="#FFFFFF" d="M380.916,234.646c0-1.541,1.229-2.373,3.438-2.373c1.418,0,2.563,0.438,3.339,0.875v-1.545
		c-0.896-0.438-2.063-0.83-3.479-0.83c-3.542,0-4.792,2-4.792,3.873c0,4.646,7.669,2.604,7.669,6.666
		c0,1.834-1.938,2.209-3.545,2.209c-1.896,0-3.188-0.562-4-1.104v1.621c0.979,0.522,2.336,0.979,4.104,0.979
		c3.104,0,4.938-1.397,4.938-3.713C388.585,236.001,380.916,237.689,380.916,234.646z"/>
</g>
<g>
	<path fill="#FEE105" d="M235.493,161.775c-0.8,2.488-1.558,5.004-2.244,7.568c-0.146,0.539-0.283,1.092-0.423,1.641
		c-6.436,27.812-2.946,45.999-1.735,51.918c0.281,0.119,0.58,0.188,0.882,0.188h16.332c1.104,0,2-0.896,2-2v-35.02
		C250.305,174.464,245.052,165.753,235.493,161.775z"/>
	<path fill="#FEE105" d="M211.771,160.132v-21.799c0-1.104-0.896-2-2-2h-17.658c-1.104,0-2,0.896-2,2v82.758c0,1.105,0.896,2,2,2
		h11.109c0.504,0,0.991-0.19,1.394-0.493c3.131-25.072,12.497-46.886,21.75-63.033c-1.255-0.119-2.548-0.188-3.892-0.188
		C219.075,159.376,214.793,159.626,211.771,160.132z"/>
	<polygon fill="#FEE105" points="221.92,131.225 234.307,135.705 250.253,122.427 237.982,136.955 251.236,141.626 256.021,114.975 
			"/>
	<polygon fill="#FEE105" points="238.004,139.546 238.312,146.48 243.254,141.541 	"/>
</g>
<g>
	<path fill="#6ACEF5" d="M375.873,213.23c0.625,0.264,1.169,0.625,1.629,1.09c0.46,0.469,0.821,1.01,1.083,1.637
		c0.265,0.625,0.394,1.299,0.394,2.015c0,0.729-0.129,1.401-0.394,2.022c-0.262,0.623-0.623,1.16-1.083,1.623
		c-0.46,0.459-1.004,0.818-1.629,1.082c-0.627,0.264-1.303,0.395-2.027,0.395c-0.729,0-1.403-0.131-2.03-0.395
		c-0.625-0.264-1.169-0.623-1.628-1.082c-0.461-0.463-0.82-1-1.084-1.623c-0.264-0.621-0.395-1.295-0.395-2.022
		c0-0.716,0.131-1.39,0.395-2.015c0.264-0.627,0.623-1.168,1.084-1.637c0.459-0.465,1.003-0.826,1.628-1.09
		c0.627-0.264,1.304-0.396,2.03-0.396C374.57,212.835,375.246,212.968,375.873,213.23z M372.111,213.914
		c-0.53,0.23-0.985,0.543-1.373,0.938c-0.388,0.396-0.689,0.859-0.905,1.395c-0.217,0.533-0.321,1.109-0.321,1.726
		c0,0.62,0.104,1.192,0.321,1.728c0.216,0.534,0.519,0.997,0.905,1.393c0.387,0.4,0.843,0.711,1.373,0.939
		c0.528,0.23,1.104,0.346,1.733,0.346c0.613,0,1.188-0.111,1.718-0.346c0.528-0.23,0.984-0.539,1.372-0.939
		c0.389-0.396,0.691-0.857,0.912-1.393c0.222-0.533,0.33-1.107,0.33-1.728c0-0.615-0.108-1.19-0.33-1.726
		c-0.221-0.533-0.523-0.996-0.912-1.395c-0.388-0.396-0.844-0.707-1.372-0.938c-0.529-0.229-1.104-0.346-1.718-0.346
		C373.218,213.568,372.641,213.684,372.111,213.914z M371.979,220.938v-5.937h2.279c0.672,0,1.159,0.142,1.471,0.424
		c0.307,0.281,0.462,0.687,0.462,1.22c0,0.261-0.037,0.481-0.116,0.679c-0.081,0.19-0.188,0.354-0.324,0.489
		c-0.14,0.133-0.298,0.237-0.478,0.315c-0.181,0.078-0.371,0.138-0.572,0.172l1.768,2.638h-0.854l-1.67-2.638h-1.229v2.638H371.979z
		 M374.335,217.66c0.216-0.012,0.406-0.053,0.571-0.117c0.166-0.062,0.3-0.166,0.399-0.311c0.103-0.145,0.151-0.34,0.151-0.588
		c0-0.209-0.04-0.381-0.117-0.512c-0.077-0.127-0.185-0.23-0.316-0.309c-0.136-0.08-0.282-0.132-0.447-0.16
		c-0.167-0.027-0.342-0.041-0.525-0.041h-1.338v2.057h0.965C373.898,217.682,374.119,217.675,374.335,217.66z"/>
</g>
</svg>
