<?xml version="1.0" encoding="utf-8"?>
<!-- Generator: Adobe Illustrator 16.0.4, SVG Export Plug-In . SVG Version: 6.00 Build 0)  -->
<!DOCTYPE svg PUBLIC "-//W3C//DTD SVG 1.1//EN" "http://www.w3.org/Graphics/SVG/1.1/DTD/svg11.dtd">
<svg version="1.1" id="Layer_1" xmlns="http://www.w3.org/2000/svg" xmlns:xlink="http://www.w3.org/1999/xlink" x="0px" y="0px"
	 width="569.562px" height="269.505px" viewBox="0 0 569.562 269.505" enable-background="new 0 0 569.562 269.505"
	 xml:space="preserve">
<g>
	<g>
		<rect y="239.925" fill="#FFFFFF" width="7.455" height="28.963"/>
		<polygon fill="#FFFFFF" points="34.056,257.304 22.288,239.925 14.812,239.925 14.812,268.888 22.288,268.888 22.288,251.649 
			34.15,268.888 41.535,268.888 41.535,239.925 34.056,239.925 		"/>
		<polygon fill="#FFFFFF" points="46.707,246.696 55.048,246.696 55.048,268.888 62.514,268.888 62.514,246.696 70.951,246.696 
			70.951,239.925 46.707,239.925 		"/>
		<polygon fill="#FFFFFF" points="75.649,268.888 95.848,268.888 95.848,262.775 83.114,262.775 83.114,257.464 94.154,257.464 
			94.154,251.342 83.114,251.342 83.114,246.002 95.848,246.002 95.848,239.925 75.649,239.925 		"/>
		<path fill="#FFFFFF" d="M124.953,249.347c0-6.122-4.772-9.431-11.675-9.431h-11.431v28.972h7.479v-9.678h3.082l5.385,9.678h8.34
			l-6.999-10.804C122.49,256.989,124.953,254.125,124.953,249.347z M113.751,253.607h-4.425v-7.604h4.425
			c1.942,0,3.733,1.476,3.733,3.822C117.484,252.123,115.693,253.607,113.751,253.607z"/>
		<path fill="#FFFFFF" d="M141.438,239.925l-11.52,28.963h8.044l2.255-6.939h9.467l2.265,6.939h8.037l-11.514-28.963H141.438z
			 M142,256.426l2.959-8.992l2.902,8.992H142z"/>
		<path fill="#FFFFFF" d="M162.644,254.386c0,12.244,7.378,14.817,13.596,14.817c3.084,0,6.261-0.824,9.292-2.047v-6.478
			c-3.171,1.527-5.865,2.096-8.854,2.096c-3.439,0-6.568-1.526-6.568-8.389c0-6.865,3.129-8.384,6.568-8.384
			c2.989,0,5.683,0.562,8.854,2.08v-6.471c-3.031-1.211-6.208-2.04-9.292-2.04C170.022,239.572,162.644,242.132,162.644,254.386z"/>
		<polygon fill="#FFFFFF" points="189.499,246.696 197.839,246.696 197.839,268.888 205.312,268.888 205.312,246.696 
			213.735,246.696 213.735,239.925 189.499,239.925 		"/>
		<rect x="218.476" y="239.925" fill="#FFFFFF" width="7.472" height="28.963"/>
		<polygon fill="#FFFFFF" points="245.022,260.421 238.556,239.925 230.566,239.925 241.685,268.888 248.457,268.888 
			259.494,239.925 251.503,239.925 		"/>
		<polygon fill="#FFFFFF" points="263.978,268.888 284.17,268.888 284.17,262.775 271.445,262.775 271.445,257.464 282.482,257.464 
			282.482,251.342 271.445,251.342 271.445,246.002 284.17,246.002 284.17,239.925 263.978,239.925 		"/>
		<path fill="#FFFFFF" d="M304.843,247.609c0-3.213,2.566-4.952,7.173-4.952c2.953,0,5.339,0.913,6.948,1.826v-3.222
			c-1.863-0.916-4.309-1.731-7.258-1.731c-7.381,0-9.99,4.173-9.99,8.079c0,9.695,15.981,5.429,15.981,13.897
			c0,3.826-4.03,4.606-7.391,4.606c-3.938,0-6.632-1.167-8.327-2.3v3.389c2.04,1.095,4.865,2.046,8.555,2.046
			c6.475,0,10.299-2.922,10.299-7.741C320.833,250.429,304.843,253.949,304.843,247.609z"/>
		<rect x="327.271" y="239.917" fill="#FFFFFF" width="3.127" height="28.972"/>
		<polygon fill="#FFFFFF" points="351.245,254.654 341.302,239.925 337.913,239.925 337.913,268.888 341.044,268.888 
			341.044,245.045 351.245,259.818 361.5,245.045 361.5,268.888 364.628,268.888 364.628,239.925 361.245,239.925 		"/>
		<path fill="#FFFFFF" d="M392.709,257.165c0,6.21-2.827,9.213-8.651,9.213c-5.823,0-8.65-3.003-8.65-9.213v-17.239h-3.123v17.057
			c0,7.92,4.178,12.266,11.773,12.266c7.607,0,11.777-4.346,11.777-12.266v-17.057h-3.126V257.165z"/>
		<polygon fill="#FFFFFF" points="406.272,239.925 403.138,239.925 403.138,268.888 421.081,268.888 421.081,265.855 
			406.272,265.855 		"/>
		<path fill="#FFFFFF" d="M436.253,239.925l-11.557,28.963h3.383l3.479-9.02h12.512l3.479,9.02h3.337l-11.511-28.963H436.253z
			 M432.722,256.865l5.094-13.251l5.079,13.251H432.722z"/>
		<polygon fill="#FFFFFF" points="449.417,242.957 459.666,242.957 459.666,268.888 462.801,268.888 462.801,242.957 
			473.006,242.957 473.006,239.925 449.417,239.925 		"/>
		<rect x="477.744" y="239.917" fill="#FFFFFF" width="3.127" height="28.972"/>
		<path fill="#FFFFFF" d="M500.559,239.53c-8.902,0-13.418,4.991-13.418,14.856c0,9.857,4.516,14.861,13.418,14.861
			c8.949,0,13.473-5.004,13.473-14.861C514.031,244.521,509.508,239.53,500.559,239.53z M500.559,266.289
			c-7.121,0-10.299-3.646-10.299-11.902c0-8.21,3.178-11.903,10.299-11.903c7.174,0,10.344,3.693,10.344,11.903
			C510.902,262.642,507.732,266.289,500.559,266.289z"/>
		<polygon fill="#FFFFFF" points="541.014,264.331 523.729,239.925 520.164,239.925 520.164,268.888 523.291,268.888 
			523.291,244.483 540.619,268.888 544.141,268.888 544.141,239.925 541.014,239.925 		"/>
		<path fill="#FFFFFF" d="M553.572,247.609c0-3.213,2.561-4.952,7.174-4.952c2.949,0,5.338,0.913,6.953,1.826v-3.222
			c-1.871-0.916-4.303-1.731-7.26-1.731c-7.381,0-9.986,4.173-9.986,8.079c0,9.695,15.99,5.429,15.99,13.897
			c0,3.826-4.049,4.606-7.395,4.606c-3.949,0-6.641-1.167-8.34-2.3v3.389c2.043,1.095,4.873,2.046,8.561,2.046
			c6.471,0,10.293-2.922,10.293-7.741C569.562,250.429,553.572,253.949,553.572,247.609z"/>
	</g>
	<g>
		<path fill="#6ACEF5" d="M70.882,50.579H4.167C1.866,50.579,0,52.452,0,54.74v166.815c0,2.303,1.866,4.169,4.167,4.169h36.821
			c2.309,0,4.173-1.866,4.173-4.169v-43.639c0-2.32,1.86-4.176,4.176-4.176h21.544c42.549,0,66.969-22.587,66.969-61.716
			C137.851,73.166,113.431,50.579,70.882,50.579 M66.682,136.455H49.338c-2.316,0-4.176-1.875-4.176-4.184V91.515
			c0-2.309,1.86-4.166,4.176-4.166h17.344c19.95,0,26.267,13.65,26.267,24.676C92.949,123.591,86.632,136.455,66.682,136.455"/>
		<path fill="#6ACEF5" d="M565.395,50.579H309.302c-2.303,0-4.176,1.873-4.176,4.161v166.815c0,2.303,1.873,4.169,4.176,4.169
			h113.764c2.305,0,4.17-1.866,4.17-4.169v-28.678c0-2.304-1.865-4.178-4.17-4.178h-70.693c-1.151,0-2.082-0.931-2.082-2.089
			v-27.862c0-1.15,0.931-2.093,2.082-2.093h60.449c2.303,0,4.168-1.857,4.168-4.16v-28.678c0-2.305-1.865-4.18-4.168-4.18h-60.449
			c-1.151,0-2.082-0.932-2.082-2.087v-28.12c0-1.148,0.931-2.082,2.082-2.082l118.985,0.122c1.158,0,2.1,0.938,2.1,2.085v131.999
			c0,2.303,1.871,4.169,4.16,4.169h36.832c2.299,0,4.17-1.866,4.17-4.169V89.556c0-1.146,0.934-2.085,2.086-2.085h44.689
			c2.289,0,4.168-1.875,4.168-4.161V54.74C569.562,52.452,567.684,50.579,565.395,50.579"/>
		<path fill="#FEE105" d="M250.348,97.855c-1.674,5.188-3.257,10.438-4.684,15.795c-0.298,1.124-0.575,2.272-0.882,3.408
			c-13.423,58.008-6.144,95.92-3.615,108.266c0.605,0.256,1.215,0.4,1.843,0.4h34.042c2.303,0,4.192-1.866,4.192-4.169v-73.032
			C281.243,124.32,270.274,106.157,250.348,97.855"/>
		<path fill="#FEE105" d="M200.885,94.433V48.976c0-2.305-1.88-4.184-4.167-4.184h-36.836c-2.302,0-4.174,1.879-4.174,4.184v172.579
			c0,2.303,1.872,4.169,4.174,4.169h23.162c1.066,0,2.077-0.4,2.915-1.026c6.533-52.292,26.069-97.769,45.346-131.446
			c-2.617-0.258-5.295-0.385-8.108-0.385C216.125,92.867,207.187,93.375,200.885,94.433"/>
		<polygon fill="#FEE105" points="222.05,34.15 247.885,43.495 281.126,15.81 255.538,46.105 283.183,55.849 293.151,0.257 		"/>
		<polyline fill="#F2E916" points="258.082,61.409 257.003,49.007 266.542,52.445 		"/>
	</g>
	<g>
		<path fill="#6ACEF5" d="M531.938,225.724v-10.049h-3.752v-1.344h9.029v1.344h-3.77v10.049H531.938z"/>
		<path fill="#6ACEF5" d="M538.715,225.724v-11.393h2.27l2.695,8.066c0.25,0.752,0.432,1.313,0.545,1.687
			c0.129-0.415,0.332-1.023,0.605-1.826l2.729-7.927h2.027v11.393h-1.453v-9.535l-3.311,9.535h-1.359l-3.295-9.699v9.699H538.715z"
			/>
	</g>
</g>
</svg>
